<svg xmlns="http://www.w3.org/2000/svg" height="512" preserveAspectRatio="none" style="display: block;" version="1.1" viewBox="0 0 2048 2048" width="512">
<path d="M 1116 365.005 L 1237.54 365.041 C 1315.17 365.06 1307.1 361.198 1307.09 435.913 L 1307.02 533.402 L 1307.02 712.178 C 1308.54 735.43 1309.62 806.598 1307.02 828.413 C 1322.42 839.374 1338.17 847.535 1353.24 859.386 C 1498.92 973.996 1512.48 1159.28 1400.63 1304.27 C 1370.69 1337.83 1350.54 1347.12 1317.86 1371.14 L 1309.87 1375.77 C 1242.26 1405.15 1189.53 1419.8 1113.04 1406.44 C 1035.27 1394.51 981.404 1352.08 929.128 1298.32 C 927.963 1326.68 934.059 1436.32 926.956 1456.78 C 921.78 1461.1 867.987 1459.2 857.309 1459.2 L 730.987 1459.2 C 671.228 1457.79 605.565 1459.19 545.313 1459.2 L 429.801 1459.27 C 419.453 1459.28 364.259 1460.95 359.015 1456.12 C 353.434 1440.22 356.135 1304.92 356.151 1277 L 356.151 1096.05 L 356.151 714.855 L 356.151 533.402 L 356.107 438.546 C 356.102 362.975 348.788 365.056 428.721 365.049 L 545.313 365.005 L 727.731 365.005 L 933.84 365.005 L 1116 365.005 z M 744.03 1277 C 799.335 1277 858.851 1278.18 913.77 1277 C 877.993 1216.16 860.148 1168.64 861.45 1096.05 L 744.03 1096.05 L 744.03 1277 z M 1116 797.292 C 1172.06 789.314 1254.58 795.139 1301.02 828.413 L 1301.02 731.097 C 1239.76 731.751 1177.36 731.117 1116 731.097 C 1115.96 745.718 1117.3 784.546 1116 797.292 z M 936.949 543.567 L 936.949 714.855 L 1065.14 714.894 C 1072.65 714.88 1111.31 714.07 1116 714.855 C 1116.62 658.187 1116.01 600.335 1116 543.567 C 1097.03 542.914 1074.61 543.522 1055.28 543.529 L 936.949 543.567 z M 744.03 714.855 L 860.699 714.808 C 879.075 714.801 901.254 714.171 919.237 714.855 L 919.237 545.919 L 744.03 545.919 L 743.996 659.311 C 743.983 675.657 743.05 699.238 744.03 714.855 z M 719.247 1079.83 C 734.82 1079.72 727.761 1039.78 727.763 1023.6 L 727.731 916.985 L 600.755 917.023 C 590.957 917.007 558.645 915.839 551.649 916.985 C 538.673 916.873 545.271 962.737 545.296 977.162 L 545.313 1079.83 L 719.247 1079.83 z M 744.03 731.097 L 744.03 906.922 L 919.237 906.922 L 919.237 731.097 L 744.03 731.097 z M 545.313 714.855 C 562.769 715.599 586.902 714.881 605.013 714.876 L 724.995 714.855 L 724.922 614.903 C 724.919 596.373 724.01 560.265 727.731 543.567 L 545.313 543.567 L 545.313 714.855 z M 1311.73 942.123 C 1308.1 949.919 1311.95 994.962 1311.96 1007.3 L 1312.69 1243.61 C 1312.74 1247.78 1312.06 1262.04 1312.27 1264.47 C 1357.99 1223.33 1384.05 1164.68 1383.94 1103.18 C 1383.84 1041.67 1357.58 983.113 1311.73 942.123 z M 545.313 1096.05 L 545.313 1277 L 670.898 1277.05 C 682.355 1277.06 718.889 1278.01 727.731 1277 C 726.664 1263.85 727.663 1233.09 727.671 1218.32 L 727.731 1096.05 L 601.721 1095.95 C 588.592 1095.96 557.043 1097.22 545.313 1096.05 z" fill="rgb(253,201,1)" transform="translate(0,0)"></path>
<path d="M 1116 797.292 C 1172.06 789.314 1254.58 795.139 1301.02 828.413 C 1303.45 828.288 1304.6 828.233 1307.02 828.413 C 1322.42 839.374 1338.17 847.535 1353.24 859.386 C 1498.92 973.996 1512.48 1159.28 1400.63 1304.27 C 1370.69 1337.83 1350.54 1347.12 1317.86 1371.14 L 1309.87 1375.77 C 1242.26 1405.15 1189.53 1419.8 1113.04 1406.44 C 1035.27 1394.51 981.404 1352.08 929.128 1298.32 C 924.487 1290.47 919.669 1283.9 913.77 1277 C 877.993 1216.16 860.148 1168.64 861.45 1096.05 C 869.146 944.79 964.56 825.913 1116 797.292 z M 1312.27 1264.47 C 1357.99 1223.33 1384.05 1164.68 1383.94 1103.18 C 1383.84 1041.67 1357.58 983.113 1311.73 942.123 C 1308.1 949.919 1311.95 994.962 1311.96 1007.3 L 1312.69 1243.61 C 1312.74 1247.78 1312.06 1262.04 1312.27 1264.47 z" fill="rgb(227,57,19)" transform="translate(0,0)"></path>
<path d="M 1059.12 916.077 C 1125.8 877.548 1207.93 877.341 1274.8 915.532 C 1288.01 923.074 1300.39 931.987 1311.73 942.123 C 1308.1 949.919 1311.95 994.962 1311.96 1007.3 L 1312.69 1243.61 C 1312.74 1247.78 1312.06 1262.04 1312.27 1264.47 C 1250.76 1319.84 1163.06 1335.29 1086.32 1304.29 C 1009.59 1273.28 957.239 1201.24 951.454 1118.68 C 945.668 1036.12 987.455 957.483 1059.12 916.077 z" fill="rgb(222,222,222)" transform="translate(0,0)"></path>
<path d="M 1059.12 916.077 C 1125.8 877.548 1207.93 877.341 1274.8 915.532 C 1259.12 919.897 1115.18 915.956 1086.55 915.996 C 1077.56 916.009 1068.01 917.136 1059.12 916.077 z" fill="rgb(253,201,1)" transform="translate(0,0)"></path>
<path d="M 1116 983.179 L 1140.04 983.179 L 1140.04 1089.87 L 1254.05 1089.87 L 1254.05 1113.21 L 1140.04 1113.21 C 1140 1151.81 1140.85 1192.2 1140.04 1230.61 L 1116 1230.61 L 1116 1113.21 L 1001.99 1113.21 L 1001.99 1089.87 L 1116 1089.87 L 1116 983.179 z" fill="rgb(131,130,130)" transform="translate(0,0)"></path>
<path d="M 365.012 731.097 L 545.313 731.097 C 540.557 775.562 544.546 860.664 545.313 906.922 L 365.012 906.922 L 365.012 731.097 z" fill="rgb(254,254,254)" transform="translate(0,0)"></path>
<path d="M 1400.63 1304.27 C 1412.53 1315.15 1429.56 1332.45 1440.7 1344.37 C 1447.26 1338.89 1448.73 1337.49 1456.25 1333.53 C 1462.9 1337.96 1467.91 1342.38 1474 1347.57 L 1474.86 1348.97 C 1484.21 1363.91 1508.96 1385.58 1522.24 1399.23 L 1643.68 1523.36 C 1655.53 1535.53 1675.08 1551.44 1682.12 1565.98 C 1711.2 1625.98 1666.68 1694.34 1598.14 1679.34 C 1564.2 1671.91 1452.17 1546.98 1423.05 1518.3 C 1406.28 1501.58 1381.44 1472.37 1362.6 1459.2 C 1345.5 1438.25 1347.45 1439.9 1362.6 1419.07 C 1348.73 1403.05 1332.6 1386.4 1317.86 1371.14 C 1350.54 1347.12 1370.69 1337.83 1400.63 1304.27 z" fill="rgb(227,57,19)" transform="translate(0,0)"></path>
<path d="M 1400.63 1304.27 C 1412.53 1315.15 1429.56 1332.45 1440.7 1344.37 C 1421.53 1358.19 1379.44 1401.11 1362.6 1419.07 C 1348.73 1403.05 1332.6 1386.4 1317.86 1371.14 C 1350.54 1347.12 1370.69 1337.83 1400.63 1304.27 z" fill="rgb(253,118,15)" transform="translate(0,0)"></path>
<path d="M 1440.7 1344.37 C 1447.26 1338.89 1448.73 1337.49 1456.25 1333.53 C 1462.9 1337.96 1467.91 1342.38 1474 1347.57 C 1447.57 1369.04 1376.81 1437.55 1362.6 1459.2 C 1345.5 1438.25 1347.45 1439.9 1362.6 1419.07 C 1379.44 1401.11 1421.53 1358.19 1440.7 1344.37 z" fill="rgb(253,201,1)" transform="translate(0,0)"></path>
<metadata><recraft-signature>{"signed_by": "recraft", "signature_b64": "RLCW0/rNIPj8Ir181ccxSqJjdP9NqaDLwhtrvbIAk9TIoxQxT8pOO4zRkFlYcTz5947k1/DRDb8kIiG94wcWAw==", "signing_algo": "Ed25519", "generation_timestamp": 1773675192, "identifier": "a3eb5a8a-d6a6-458e-940c-501a4371c83f"}</recraft-signature></metadata></svg>