<svg xmlns="http://www.w3.org/2000/svg" height="512" preserveAspectRatio="none" style="display: block;" version="1.1" viewBox="0 0 2048 2048" width="512">
<path d="M 367.02 360.5 L 638.791 360.323 C 644.839 360.258 656.982 359.431 662.051 360.5 L 664.975 360.5 C 725.419 360.307 787.616 361.476 847.834 360.5 C 868.771 357.514 897.789 360.528 919.465 360.521 L 1086.76 360.515 C 1109.41 360.521 1145.97 362.06 1167.03 360.5 L 1406.14 360.5 C 1405.43 374.927 1406.08 389.786 1406.12 404.304 L 1406.09 562.948 C 1406.04 577.458 1405.46 594.831 1406.14 609.104 C 1407.2 617.647 1406.11 648.617 1406.1 659.41 L 1406.24 951.506 C 1406.26 955.924 1406.62 968.056 1406.14 971.626 L 1406.61 973.097 C 1410.22 984.123 1416.84 995.241 1421.86 1005.79 C 1470.63 1108.35 1456.12 1228.12 1385.64 1316.56 C 1397.93 1327.58 1407.87 1339.48 1418.62 1351.94 C 1401.76 1367.18 1374.91 1397.51 1359.76 1408.85 C 1338.21 1431.65 1348.06 1434.42 1363.07 1455.6 C 1376.32 1466.82 1388.56 1480.95 1401.03 1493.33 L 1401.03 1563.55 L 1046.55 1563.55 C 989.147 1563.55 926.446 1562.23 869.434 1563.55 L 723.393 1563.47 C 703.821 1563.49 671.781 1564.92 654.054 1563.55 L 367.02 1563.55 C 365.911 1482.33 367.018 1398.01 367.02 1316.56 L 367.02 1131.19 L 367.02 872.02 L 367.02 655.209 C 368.102 638.215 367.085 612.279 367.06 594.364 L 367.084 397.501 C 367.129 388.049 368.13 368.676 367.02 360.5 z" fill="rgb(222,222,222)" transform="translate(0,0)"></path>
<path d="M 1167.03 841.91 C 1248.12 841.623 1309.9 875.137 1368.03 928.02 C 1375.98 938.031 1397.1 964.081 1406.14 971.626 L 1406.61 973.097 C 1410.22 984.123 1416.84 995.241 1421.86 1005.79 C 1470.63 1108.35 1456.12 1228.12 1385.64 1316.56 C 1397.93 1327.58 1407.87 1339.48 1418.62 1351.94 C 1401.76 1367.18 1374.91 1397.51 1359.76 1408.85 C 1338.21 1431.65 1348.06 1434.42 1363.07 1455.6 C 1376.32 1466.82 1388.56 1480.95 1401.03 1493.33 L 1401.03 1563.55 L 1046.55 1563.55 C 989.147 1563.55 926.446 1562.23 869.434 1563.55 L 869.434 1362.4 L 869.434 1353.82 L 919.816 1353.82 L 919.816 1353.82 L 919.816 1348.75 C 919.731 1338.12 919.492 1327.15 919.816 1316.56 C 909.698 1316.45 877.183 1317.75 869.434 1316.56 L 869.434 1312.67 C 864.269 1281.8 870.495 1207.33 869.434 1171.94 C 870.072 1160.85 869.446 1142.84 869.434 1131.19 C 874.546 1062.36 880.916 1038.28 911.942 977.031 C 929.436 955.257 946.313 933.928 964.739 912.832 C 965.555 912.528 1011.29 881.557 1019.03 876.118 L 1018.74 874.976 C 1044.41 869.16 1067.37 854.751 1093.65 849.09 C 1103.62 846.942 1114.57 845.158 1124.17 841.91 C 1138.62 842.686 1151.63 840.882 1167.03 841.91 z" fill="rgb(251,119,4)" transform="translate(0,0)"></path>
<path d="M 919.816 1316.56 C 924.707 1316.58 930.482 1316.74 935.273 1316.56 C 942.331 1321.81 962.325 1344.03 970.764 1351.94 L 970.764 1351.94 C 1020.54 1388.02 1054.03 1409.8 1117.98 1421.42 C 1139.15 1423.8 1152.29 1425.25 1173.54 1424.87 C 1224.5 1425.75 1281.95 1402.83 1323.77 1374.55 C 1334.52 1385.54 1348.09 1399.05 1359.76 1408.85 C 1338.21 1431.65 1348.06 1434.42 1363.07 1455.6 C 1376.32 1466.82 1388.56 1480.95 1401.03 1493.33 L 1401.03 1563.55 L 1046.55 1563.55 C 989.147 1563.55 926.446 1562.23 869.434 1563.55 L 869.434 1362.4 L 869.434 1353.82 L 919.816 1353.82 L 919.816 1353.82 L 919.816 1348.75 C 919.731 1338.12 919.492 1327.15 919.816 1316.56 z" fill="rgb(222,222,222)" transform="translate(0,0)"></path>
<path d="M 919.816 1316.56 C 924.707 1316.58 930.482 1316.74 935.273 1316.56 C 942.331 1321.81 962.325 1344.03 970.764 1351.94 L 970.764 1351.94 C 1020.54 1388.02 1054.03 1409.8 1117.98 1421.42 L 1117.98 1522.92 L 919.816 1522.92 L 919.816 1353.82 L 919.816 1353.82 L 919.816 1348.75 C 919.731 1338.12 919.492 1327.15 919.816 1316.56 z" fill="rgb(254,254,254)" transform="translate(0,0)"></path>
<path d="M 919.816 1316.56 C 924.707 1316.58 930.482 1316.74 935.273 1316.56 C 942.331 1321.81 962.325 1344.03 970.764 1351.94 L 970.764 1351.94 C 955.598 1353.13 935.262 1353.92 919.816 1353.82 L 919.816 1348.75 C 919.731 1338.12 919.492 1327.15 919.816 1316.56 z" fill="rgb(254,254,254)" transform="translate(0,0)"></path>
<path d="M 919.816 1348.75 C 938.19 1349.23 952.611 1349.36 970.764 1351.94 L 970.764 1351.94 C 955.598 1353.13 935.262 1353.92 919.816 1353.82 L 919.816 1348.75 z" fill="rgb(173,158,155)" transform="translate(0,0)"></path>
<path d="M 1323.77 1374.55 C 1334.52 1385.54 1348.09 1399.05 1359.76 1408.85 C 1338.21 1431.65 1348.06 1434.42 1363.07 1455.6 C 1363.67 1477.38 1363.15 1501.02 1363.07 1522.92 L 1167.03 1522.92 C 1167.07 1492.19 1167.78 1457.75 1166.05 1427.38 C 1167.63 1425.28 1170.1 1425.55 1173.54 1424.87 C 1224.5 1425.75 1281.95 1402.83 1323.77 1374.55 z" fill="rgb(254,254,254)" transform="translate(0,0)"></path>
<path d="M 1385.64 1316.56 C 1397.93 1327.58 1407.87 1339.48 1418.62 1351.94 C 1401.76 1367.18 1374.91 1397.51 1359.76 1408.85 C 1348.09 1399.05 1334.52 1385.54 1323.77 1374.55 C 1349.86 1352.98 1362.45 1341.35 1385.64 1316.56 z" fill="rgb(40,52,66)" transform="translate(0,0)"></path>
<path d="M 869.434 1312.67 C 864.269 1281.8 870.495 1207.33 869.434 1171.94 C 882.583 1188.66 887.939 1256.38 925.982 1300.02 C 929.345 1307.07 930.949 1310.08 935.273 1316.56 C 930.482 1316.74 924.707 1316.58 919.816 1316.56 C 909.698 1316.45 877.183 1317.75 869.434 1316.56 L 869.434 1312.67 z" fill="rgb(253,201,1)" transform="translate(0,0)"></path>
<path d="M 1156.74 925.995 C 1196.61 918.989 1252.55 941.995 1283.86 963.899 C 1451.25 1078.76 1354.34 1355.9 1156.74 1342.07 C 1108.02 1341.67 1054.4 1318.35 1019.65 1285.2 C 883.141 1155 967.655 931.583 1156.74 925.995 z" fill="rgb(253,228,100)" transform="translate(0,0)"></path>
<path d="M 1156.74 925.995 C 1196.61 918.989 1252.55 941.995 1283.86 963.899 C 1451.25 1078.76 1354.34 1355.9 1156.74 1342.07 C 1158.89 1329.36 1163.03 1233.61 1156.74 1227.86 C 1179.79 1198.9 1222.51 1165.02 1249.39 1135.39 C 1268.19 1114.67 1303.3 1095.97 1282.18 1065.33 C 1239.2 1002.99 1196.05 1081.85 1159.08 1111.84 C 1158.37 1098.05 1159.01 1078.38 1159.01 1064.22 L 1159.06 968.117 C 1159.07 962.696 1159.62 929.944 1158.96 927.006 L 1156.74 925.995 z" fill="rgb(253,201,1)" transform="translate(0,0)"></path>
<path d="M 1159.08 1111.84 C 1196.05 1081.85 1239.2 1002.99 1282.18 1065.33 C 1303.3 1095.97 1268.19 1114.67 1249.39 1135.39 C 1222.51 1165.02 1179.79 1198.9 1156.74 1227.86 C 1104.67 1277.54 1091.61 1242.49 1050.57 1202.09 C 1023.23 1174.98 989.13 1149.61 1036.09 1118.03 C 1072.02 1093.87 1094.98 1129.9 1117.98 1154.63 C 1129.58 1142.56 1150.06 1124.5 1159.08 1111.84 z" fill="rgb(227,57,19)" transform="translate(0,0)"></path>
<path d="M 654.054 1312.67 L 787.043 1312.61 C 800.596 1312.61 836.388 1311.59 847.834 1312.67 L 856 1314.68 L 856.757 1316.56 C 860.669 1316.54 865.619 1316.36 869.434 1316.56 C 877.183 1317.75 909.698 1316.45 919.816 1316.56 C 919.492 1327.15 919.731 1338.12 919.816 1348.75 L 919.816 1353.82 L 919.816 1353.82 L 869.434 1353.82 L 869.434 1362.4 L 869.434 1563.55 L 723.393 1563.47 C 703.821 1563.49 671.781 1564.92 654.054 1563.55 L 367.02 1563.55 C 365.911 1482.33 367.018 1398.01 367.02 1316.56 L 529.111 1316.6 C 552.148 1316.6 587.925 1317.76 610.182 1316.56 L 610.182 1312.67 C 625.974 1313.91 638.276 1314.6 654.054 1312.67 z" fill="rgb(222,222,222)" transform="translate(0,0)"></path>
<path d="M 869.434 1362.4 L 869.434 1563.55 L 723.393 1563.47 C 703.821 1563.49 671.781 1564.92 654.054 1563.55 C 653.081 1497.4 654.047 1428.76 654.054 1362.4 C 675.332 1362.92 698.894 1362.42 720.322 1362.41 L 869.434 1362.4 z" fill="rgb(227,57,19)" transform="translate(0,0)"></path>
<path d="M 403.512 1351.94 C 425.256 1351.84 452.487 1353.03 473.516 1351.94 L 608.806 1351.94 C 608.249 1369.73 608.787 1390.73 608.79 1408.73 L 608.806 1522.92 C 540.965 1522.1 471.486 1522.9 403.512 1522.92 L 403.512 1351.94 z" fill="rgb(254,254,254)" transform="translate(0,0)"></path>
<path d="M 654.054 1348.75 C 663.666 1347.58 680.853 1348.68 691.483 1348.73 L 838.085 1348.71 C 844.803 1348.7 863.908 1347.98 869.434 1348.75 L 869.434 1353.82 L 869.434 1362.4 L 720.322 1362.41 C 698.894 1362.42 675.332 1362.92 654.054 1362.4 L 654.054 1351.94 L 654.054 1348.75 z" fill="rgb(147,0,0)" transform="translate(0,0)"></path>
<path d="M 654.054 1312.67 L 787.043 1312.61 C 800.596 1312.61 836.388 1311.59 847.834 1312.67 L 856 1314.68 L 856.757 1316.56 C 849.587 1317.41 837.107 1316.81 829.512 1316.73 L 610.182 1316.56 L 610.182 1312.67 C 625.974 1313.91 638.276 1314.6 654.054 1312.67 z" fill="rgb(173,158,155)" transform="translate(0,0)"></path>
<path d="M 473.516 1351.94 C 458.238 1349.59 419.28 1354.55 403.169 1350.29 L 402.643 1349.2 C 409.838 1346.19 626.145 1350.33 654.054 1348.75 L 654.054 1351.94 C 639.607 1352.92 623.523 1351.83 608.806 1351.94 L 473.516 1351.94 z" fill="rgb(127,95,86)" transform="translate(0,0)"></path>
<path d="M 869.434 1348.75 C 886.102 1349.07 903.117 1348.83 919.816 1348.75 L 919.816 1353.82 L 919.816 1353.82 L 869.434 1353.82 L 869.434 1348.75 z" fill="rgb(153,127,118)" transform="translate(0,0)"></path>
<path d="M 1167.03 360.5 L 1406.14 360.5 C 1405.43 374.927 1406.08 389.786 1406.12 404.304 L 1406.09 562.948 C 1406.04 577.458 1405.46 594.831 1406.14 609.104 C 1406.17 621.167 1396.13 616.802 1386.43 616.795 L 1167.03 616.772 L 1167.03 360.5 z" fill="rgb(253,201,1)" transform="translate(0,0)"></path>
<path d="M 654.054 616.772 L 654.061 385.363 C 654.075 371.401 649.209 361.059 662.051 360.5 L 664.975 360.5 C 725.419 360.307 787.616 361.476 847.834 360.5 C 855.082 360.58 862.187 360.677 869.434 360.5 L 869.434 616.772 L 664.975 616.772 L 654.054 616.772 z" fill="rgb(253,201,1)" transform="translate(0,0)"></path>
<path d="M 367.02 655.209 L 610.182 655.209 L 610.182 675.876 L 610.182 872.02 L 382.422 872.02 L 367.02 872.02 L 367.02 655.209 z" fill="rgb(227,57,19)" transform="translate(0,0)"></path>
<path d="M 367.02 655.209 L 610.182 655.209 L 610.182 675.876 C 534.787 675.11 457.94 675.887 382.422 675.876 L 382.46 820.365 C 382.494 830.203 384.284 864.866 382.422 872.02 L 367.02 872.02 L 367.02 655.209 z" fill="rgb(147,0,0)" transform="translate(0,0)"></path>
<path d="M 655.79 655.209 L 869.434 655.209 L 869.434 872.02 C 855.654 870.711 818.954 872.078 803.372 872.085 L 655.79 872.02 C 654.824 850.17 655.785 821.968 655.793 799.388 L 655.79 655.209 z" fill="rgb(254,254,254)" transform="translate(0,0)"></path>
<path d="M 367.02 1131.19 L 530.994 1131.16 C 551.48 1131.16 591.297 1129.88 610.182 1131.19 L 610.182 1312.67 L 610.182 1316.56 C 587.925 1317.76 552.148 1316.6 529.111 1316.6 L 367.02 1316.56 L 367.02 1131.19 z" fill="rgb(253,201,1)" transform="translate(0,0)"></path>
<path d="M 1167.03 655.209 L 1368.03 655.209 L 1368.03 928.02 C 1309.9 875.137 1248.12 841.623 1167.03 841.91 C 1168.22 827.242 1166.96 798.308 1166.95 782.66 L 1167.03 655.209 z" fill="rgb(254,254,254)" transform="translate(0,0)"></path>
<path d="M 654.054 1131.19 L 869.434 1131.19 C 869.446 1142.84 870.072 1160.85 869.434 1171.94 C 870.495 1207.33 864.269 1281.8 869.434 1312.67 L 869.434 1316.56 C 865.619 1316.36 860.669 1316.54 856.757 1316.56 L 856 1314.68 L 847.834 1312.67 C 836.388 1311.59 800.596 1312.61 787.043 1312.61 L 654.054 1312.67 L 654.054 1131.19 z" fill="rgb(254,254,254)" transform="translate(0,0)"></path>
<path d="M 869.434 1312.67 L 869.434 1316.56 C 865.619 1316.36 860.669 1316.54 856.757 1316.56 L 856 1314.68 L 847.834 1312.67 C 854.103 1312.52 863.327 1312.09 869.434 1312.67 z" fill="rgb(153,127,118)" transform="translate(0,0)"></path>
<path d="M 1124.17 675.876 L 1124.17 841.91 C 1114.57 845.158 1103.62 846.942 1093.65 849.09 C 1067.37 854.751 1044.41 869.16 1018.74 874.976 C 996.493 875.555 971.792 875.038 949.385 874.976 C 941.773 874.115 933.678 874.674 925.982 874.976 C 926.852 855.304 926.031 828.523 926.025 808.295 L 925.982 675.876 L 1062.6 675.805 C 1079.14 675.808 1109.62 677.49 1124.17 675.876 z" fill="rgb(227,57,19)" transform="translate(0,0)"></path>
<path d="M 664.975 928.02 C 685.656 928.853 712.754 928.063 733.949 928.057 L 869.434 928.02 L 869.434 1079.39 C 802.256 1077.83 732.291 1080.87 664.975 1079.39 L 664.975 928.02 z" fill="rgb(253,201,1)" transform="translate(0,0)"></path>
<path d="M 908.871 655.209 L 1124.17 655.209 C 1123.72 662.525 1123.94 668.534 1124.17 675.876 C 1109.62 677.49 1079.14 675.808 1062.6 675.805 L 925.982 675.876 L 926.025 808.295 C 926.031 828.523 926.852 855.304 925.982 874.976 C 921.823 874.732 912.163 874.049 908.871 872.02 L 908.871 655.209 z" fill="rgb(147,0,0)" transform="translate(0,0)"></path>
<path d="M 654.054 909.332 L 869.434 909.332 L 869.434 915.959 L 869.434 928.02 L 733.949 928.057 C 712.754 928.063 685.656 928.853 664.975 928.02 L 664.975 1079.39 L 654.054 1079.39 L 654.054 909.332 z" fill="rgb(251,119,4)" transform="translate(0,0)"></path>
<path d="M 911.942 912.832 C 918.913 913.493 931.123 912.946 938.487 912.832 C 944.904 913.674 962.428 912.177 964.739 912.832 C 946.313 933.928 929.436 955.257 911.942 977.031 C 911.59 973.412 911.862 968.191 911.942 964.431 L 911.942 912.832 z" fill="rgb(254,254,254)" transform="translate(0,0)"></path>
<path d="M 911.942 909.332 C 923.018 908.895 942.367 908.387 953.048 909.332 L 942.865 910.942 C 944.63 911.946 950.274 912.137 952.695 912.35 L 938.487 912.832 C 931.123 912.946 918.913 913.493 911.942 912.832 L 911.942 964.431 C 907.283 958.873 908.808 922.492 908.871 912.832 L 911.942 909.332 z" fill="rgb(253,228,100)" transform="translate(0,0)"></path>
<path d="M 869.434 872.02 C 882.747 872.458 895.551 872.417 908.871 872.02 C 912.163 874.049 921.823 874.732 925.982 874.976 C 933.678 874.674 941.773 874.115 949.385 874.976 C 938.105 875.787 874.799 878.991 869.434 872.02 z" fill="rgb(153,127,118)" transform="translate(0,0)"></path>
<path d="M 869.434 909.332 C 883.784 909.145 897.597 909.059 911.942 909.332 L 908.871 912.832 C 896.494 912.228 870.48 905.587 869.434 915.959 L 869.434 909.332 z" fill="rgb(153,127,118)" transform="translate(0,0)"></path>
<path d="M 911.942 399.169 L 1124.17 399.169 L 1124.17 614.194 L 911.942 614.194 L 911.942 399.169 z" fill="rgb(254,254,254)" transform="translate(0,0)"></path>
<path d="M 415.13 399.169 L 608.806 399.169 L 608.778 575.931 C 608.782 581.776 609.906 611.613 608.539 613.933 L 603.25 614.194 L 403.512 614.194 L 403.512 399.169 L 415.13 399.169 z" fill="rgb(254,254,254)" transform="translate(0,0)"></path>
<path d="M 409.674 915.959 L 608.806 915.959 C 608.806 932.155 610.127 1072.88 607.479 1076.68 L 603.25 1077.03 L 403.512 1077.03 C 403.145 1025.14 402.638 969.021 403.461 917.222 C 405.838 915.341 405.869 916.013 409.674 915.959 z" fill="rgb(254,254,254)" transform="translate(0,0)"></path>
<path d="M 1418.62 1351.94 C 1434.75 1333.7 1441.21 1336.49 1458.27 1352.77 C 1507.69 1399.97 1554.63 1449.58 1602.44 1498.39 L 1642.88 1539.23 C 1651.35 1547.67 1673.62 1568.28 1678.53 1578.41 C 1701.35 1625.46 1669.43 1680.04 1616.35 1681.02 C 1585.33 1681.6 1568.21 1662.43 1547.9 1642.15 L 1438.53 1531.86 C 1426.17 1519.36 1413.49 1505.41 1401.03 1493.33 C 1388.56 1480.95 1376.32 1466.82 1363.07 1455.6 C 1348.06 1434.42 1338.21 1431.65 1359.76 1408.85 C 1374.91 1397.51 1401.76 1367.18 1418.62 1351.94 z" fill="rgb(253,201,1)" transform="translate(0,0)"></path>
<metadata><recraft-signature>{"signed_by": "recraft", "signature_b64": "Spswcq6K2Wn4LyMAyGie8wW975Oo73IJax19goG9y1CtjciXbLJXPzffPx/iRg5wR7oihlO3pL9dd13C5IusBA==", "signing_algo": "Ed25519", "generation_timestamp": 1773675241, "identifier": "c5726d0d-e4f5-4db3-99be-a9e32f955be2"}</recraft-signature></metadata></svg>