<svg xmlns="http://www.w3.org/2000/svg" xmlns:xlink="http://www.w3.org/1999/xlink" width="1641" zoomAndPan="magnify" viewBox="0 0 1230.75 634.499981" height="846" preserveAspectRatio="xMidYMid meet" version="1.0"><defs><g/><clipPath id="bccefad0e8"><path d="M 762.152344 43.917969 L 1084.625 43.917969 L 1084.625 366.390625 L 762.152344 366.390625 Z M 762.152344 43.917969 " clip-rule="nonzero"/></clipPath><clipPath id="d18d994d21"><path d="M 787.511719 223 L 945 223 L 945 326 L 787.511719 326 Z M 787.511719 223 " clip-rule="nonzero"/></clipPath><clipPath id="6998aa34dc"><path d="M 922 193 L 1025 193 L 1025 353.28125 L 922 353.28125 Z M 922 193 " clip-rule="nonzero"/></clipPath><clipPath id="8f85ae5776"><path d="M 974.535156 1.203125 L 1017.25 1.203125 L 1017.25 43.917969 L 974.535156 43.917969 Z M 974.535156 1.203125 " clip-rule="nonzero"/></clipPath><clipPath id="72403a6f36"><path d="M 995.890625 1.203125 C 984.097656 1.203125 974.535156 10.765625 974.535156 22.5625 C 974.535156 34.355469 984.097656 43.917969 995.890625 43.917969 C 1007.6875 43.917969 1017.25 34.355469 1017.25 22.5625 C 1017.25 10.765625 1007.6875 1.203125 995.890625 1.203125 Z M 995.890625 1.203125 " clip-rule="nonzero"/></clipPath><clipPath id="301a0a771a"><path d="M 0.535156 0.203125 L 43.25 0.203125 L 43.25 42.917969 L 0.535156 42.917969 Z M 0.535156 0.203125 " clip-rule="nonzero"/></clipPath><clipPath id="1700bfb981"><path d="M 21.890625 0.203125 C 10.097656 0.203125 0.535156 9.765625 0.535156 21.5625 C 0.535156 33.355469 10.097656 42.917969 21.890625 42.917969 C 33.6875 42.917969 43.25 33.355469 43.25 21.5625 C 43.25 9.765625 33.6875 0.203125 21.890625 0.203125 Z M 21.890625 0.203125 " clip-rule="nonzero"/></clipPath><clipPath id="eadda1853f"><rect x="0" width="44" y="0" height="43"/></clipPath><clipPath id="2422d43a5d"><path d="M 1040.414062 51.558594 L 1061.769531 51.558594 L 1061.769531 72.914062 L 1040.414062 72.914062 Z M 1040.414062 51.558594 " clip-rule="nonzero"/></clipPath><clipPath id="670e24aea8"><path d="M 1051.09375 51.558594 C 1045.195312 51.558594 1040.414062 56.339844 1040.414062 62.238281 C 1040.414062 68.132812 1045.195312 72.914062 1051.09375 72.914062 C 1056.988281 72.914062 1061.769531 68.132812 1061.769531 62.238281 C 1061.769531 56.339844 1056.988281 51.558594 1051.09375 51.558594 Z M 1051.09375 51.558594 " clip-rule="nonzero"/></clipPath><clipPath id="36273ab3f7"><path d="M 0.414062 0.558594 L 21.769531 0.558594 L 21.769531 21.914062 L 0.414062 21.914062 Z M 0.414062 0.558594 " clip-rule="nonzero"/></clipPath><clipPath id="c7ee25fc2c"><path d="M 11.09375 0.558594 C 5.195312 0.558594 0.414062 5.339844 0.414062 11.238281 C 0.414062 17.132812 5.195312 21.914062 11.09375 21.914062 C 16.988281 21.914062 21.769531 17.132812 21.769531 11.238281 C 21.769531 5.339844 16.988281 0.558594 11.09375 0.558594 Z M 11.09375 0.558594 " clip-rule="nonzero"/></clipPath><clipPath id="254f4bcc2f"><rect x="0" width="22" y="0" height="22"/></clipPath><clipPath id="4f7161f4f4"><path d="M 0.683594 49 L 744 49 L 744 339 L 0.683594 339 Z M 0.683594 49 " clip-rule="nonzero"/></clipPath><clipPath id="a4f8ecc708"><rect x="0" width="744" y="0" height="290"/></clipPath><clipPath id="90521eb29b"><rect x="0" width="1085" y="0" height="367"/></clipPath></defs><g transform="matrix(1, 0, 0, 1, 145, 123)"><g clip-path="url(#90521eb29b)"><g clip-path="url(#bccefad0e8)"><path fill="#3b82f6" d="M 1050.800781 277.222656 C 1053.273438 292.023438 1048.835938 307.722656 1037.398438 319.164062 C 1025.960938 330.601562 1010.261719 335.039062 995.460938 332.566406 C 983.085938 330.5 970.261719 334.777344 963.242188 345.171875 C 954.597656 357.96875 940.015625 366.386719 923.390625 366.386719 C 906.761719 366.386719 892.179688 357.96875 883.535156 345.171875 C 876.515625 334.777344 863.691406 330.5 851.316406 332.566406 C 836.515625 335.039062 820.816406 330.601562 809.378906 319.164062 C 797.941406 307.722656 793.503906 292.023438 795.976562 277.222656 C 798.042969 264.847656 793.765625 252.027344 783.371094 245.007812 C 770.570312 236.363281 762.15625 221.78125 762.15625 205.152344 C 762.15625 188.527344 770.570312 173.945312 783.371094 165.300781 C 793.765625 158.28125 798.042969 145.457031 795.976562 133.082031 C 793.503906 118.28125 797.941406 102.582031 809.378906 91.140625 C 820.820312 79.703125 836.519531 75.265625 851.320312 77.738281 C 863.691406 79.804688 876.515625 75.53125 883.535156 65.132812 C 892.179688 52.335938 906.761719 43.917969 923.390625 43.917969 C 940.015625 43.917969 954.597656 52.335938 963.242188 65.132812 C 970.261719 75.527344 983.085938 79.804688 995.457031 77.738281 C 1010.257812 75.265625 1025.960938 79.703125 1037.398438 91.140625 C 1048.839844 102.582031 1053.273438 118.28125 1050.800781 133.082031 C 1048.734375 145.457031 1053.011719 158.28125 1063.40625 165.300781 C 1076.207031 173.945312 1084.625 188.523438 1084.625 205.152344 C 1084.625 221.785156 1076.207031 236.363281 1063.40625 245.007812 C 1053.011719 252.027344 1048.734375 264.851562 1050.800781 277.222656 Z M 1050.800781 277.222656 " fill-opacity="1" fill-rule="nonzero"/></g><path fill="#ffffff" d="M 1061.597656 158.3125 C 1058.625 156.414062 1055.199219 155.503906 1051.691406 155.6875 L 1049.722656 155.789062 L 1067.253906 124.636719 C 1067.871094 123.53125 1067.484375 122.132812 1066.378906 121.507812 L 1041.464844 107.496094 C 1040.234375 106.800781 1038.671875 107.457031 1038.300781 108.824219 L 1038.121094 109.488281 C 1037.648438 111.25 1036.921875 112.9375 1035.957031 114.5 C 1033.421875 118.628906 1029.421875 121.59375 1024.699219 122.855469 C 1019.972656 124.117188 1015.027344 123.53125 1010.773438 121.222656 C 1006.273438 118.761719 1003.023438 114.714844 1001.609375 109.808594 C 999.96875 104.109375 1001.046875 98.078125 1004.65625 93.191406 C 1005.101562 92.589844 1005.597656 92.027344 1006.117188 91.480469 L 1006.5 91.082031 C 1007.523438 90.003906 1007.265625 88.253906 1005.96875 87.527344 L 981.101562 73.539062 C 980.03125 72.9375 978.679688 73.320312 978.074219 74.386719 L 960.511719 105.609375 L 959.578125 103.878906 C 957.917969 100.792969 955.359375 98.335938 952.195312 96.777344 C 943.738281 92.617188 933.257812 96.300781 929.402344 105.195312 C 927.886719 108.683594 927.625 112.632812 928.632812 116.296875 C 929.875 120.839844 932.894531 124.574219 937.09375 126.753906 C 939.835938 128.179688 942.933594 128.753906 946.019531 128.589844 L 947.632812 128.503906 L 930.089844 159.6875 C 929.476562 160.773438 929.867188 162.15625 930.953125 162.769531 L 956.683594 177.246094 C 957.933594 177.949219 959.5 177.195312 959.730469 175.773438 L 959.875 174.863281 C 960.253906 172.507812 961.058594 170.269531 962.269531 168.222656 C 964.765625 164.003906 968.765625 160.949219 973.535156 159.625 C 978.308594 158.308594 983.304688 158.863281 987.617188 161.203125 C 992.117188 163.640625 995.378906 167.707031 996.792969 172.609375 C 998.210938 177.527344 997.609375 182.691406 995.101562 187.152344 C 994.003906 189.101562 992.578125 190.832031 990.867188 192.289062 L 990.316406 192.761719 C 989.148438 193.753906 989.328125 195.605469 990.664062 196.355469 L 1016.179688 210.707031 C 1017.296875 211.332031 1018.703125 210.9375 1019.328125 209.828125 L 1036.847656 178.6875 L 1037.613281 180.105469 C 1039.078125 182.828125 1041.183594 185.179688 1043.828125 186.785156 C 1047.875 189.242188 1052.636719 189.878906 1057.164062 188.582031 C 1060.820312 187.535156 1064.046875 185.253906 1066.246094 182.152344 C 1071.835938 174.238281 1069.539062 163.375 1061.601562 158.3125 Z M 1061.597656 158.3125 " fill-opacity="1" fill-rule="nonzero"/><path fill="#ffffff" d="M 817.628906 218.554688 L 857.632812 218.554688 L 853.632812 225.9375 C 853.554688 226.085938 853.472656 226.230469 853.394531 226.378906 L 852.71875 227.628906 L 852.789062 227.703125 C 852.082031 229.460938 851.71875 231.351562 851.71875 233.261719 C 851.71875 241.503906 858.421875 248.207031 866.660156 248.207031 C 874.902344 248.207031 881.605469 241.503906 881.605469 233.261719 C 881.605469 231.390625 881.253906 229.542969 880.578125 227.820312 L 880.664062 227.742188 L 879.898438 226.324219 C 879.835938 226.203125 879.773438 226.085938 879.707031 225.96875 L 875.695312 218.558594 L 915.777344 218.558594 C 916.960938 218.558594 917.914062 217.601562 917.914062 216.425781 L 917.914062 190.992188 C 917.914062 189.765625 916.84375 188.8125 915.621094 188.953125 L 914.894531 189.039062 C 914.070312 189.136719 913.230469 189.179688 912.398438 189.179688 C 906.519531 189.179688 901.007812 186.875 896.878906 182.691406 C 892.75 178.507812 890.527344 172.964844 890.605469 167.078125 C 890.761719 155.683594 899.792969 146.265625 911.160156 145.628906 C 912.410156 145.558594 913.664062 145.59375 914.886719 145.734375 L 915.320312 145.785156 C 916.695312 145.945312 917.902344 144.867188 917.902344 143.480469 L 917.902344 118.429688 C 917.902344 117.199219 916.910156 116.207031 915.683594 116.207031 L 876.660156 116.207031 L 880.667969 108.800781 L 880.535156 108.683594 C 880.601562 108.519531 880.664062 108.351562 880.71875 108.183594 L 880.730469 108.140625 C 880.75 108.089844 880.769531 108.042969 880.789062 107.984375 C 880.882812 107.699219 880.96875 107.425781 881.046875 107.15625 L 881.085938 107.011719 C 881.152344 106.75 881.214844 106.488281 881.277344 106.195312 C 881.289062 106.136719 881.300781 106.082031 881.3125 106.023438 L 881.3125 105.984375 C 881.363281 105.753906 881.402344 105.527344 881.433594 105.304688 C 881.453125 105.203125 881.464844 105.101562 881.476562 105.011719 C 881.503906 104.789062 881.527344 104.578125 881.542969 104.355469 L 881.542969 104.300781 C 881.554688 104.226562 881.558594 104.160156 881.566406 104.082031 C 881.605469 103.480469 881.605469 102.988281 881.574219 102.507812 C 881.113281 94.804688 874.890625 88.496094 867.171875 88.230469 C 858.695312 87.9375 851.707031 94.753906 851.707031 103.167969 C 851.707031 103.449219 851.71875 103.75 851.734375 104.09375 C 851.734375 104.164062 851.746094 104.234375 851.75 104.304688 L 851.75 104.363281 C 851.773438 104.582031 851.796875 104.796875 851.824219 105.011719 C 851.835938 105.105469 851.847656 105.207031 851.863281 105.304688 C 851.898438 105.535156 851.9375 105.765625 851.980469 105.992188 L 851.980469 106.03125 C 852 106.085938 852.011719 106.144531 852.019531 106.199219 C 852.089844 106.515625 852.15625 106.8125 852.234375 107.101562 L 852.234375 107.128906 C 852.320312 107.398438 852.40625 107.679688 852.503906 107.984375 C 852.523438 108.035156 852.539062 108.082031 852.554688 108.132812 L 852.574219 108.171875 C 852.636719 108.339844 852.695312 108.507812 852.765625 108.675781 L 852.628906 108.796875 L 856.644531 116.203125 L 817.859375 116.203125 C 816.589844 116.203125 815.5625 117.234375 815.5625 118.5 L 815.5625 144.007812 C 815.5625 145.109375 816.523438 145.964844 817.617188 145.84375 L 818.574219 145.730469 C 819.398438 145.632812 820.234375 145.589844 821.070312 145.589844 C 826.949219 145.589844 832.457031 147.890625 836.585938 152.078125 C 840.714844 156.261719 842.941406 161.804688 842.863281 167.6875 C 842.703125 179.082031 833.675781 188.5 822.308594 189.136719 C 821.0625 189.203125 819.808594 189.167969 818.578125 189.027344 L 817.710938 188.925781 C 816.570312 188.796875 815.566406 189.691406 815.566406 190.84375 L 815.566406 216.488281 C 815.566406 217.632812 816.488281 218.554688 817.632812 218.554688 Z M 817.628906 218.554688 " fill-opacity="1" fill-rule="nonzero"/><g clip-path="url(#d18d994d21)"><path fill="#ffffff" d="M 929.03125 291.117188 C 937.785156 290.625 944.734375 283.371094 944.855469 274.601562 C 944.914062 270.070312 943.203125 265.796875 940.019531 262.574219 C 936.375 258.875 931.324219 257.082031 926.058594 257.691406 C 923.511719 257.984375 921.082031 258.917969 918.921875 260.289062 L 917.445312 261.222656 L 917.445312 224.8125 C 917.445312 223.910156 916.714844 223.179688 915.8125 223.179688 L 885.6875 223.179688 C 884.242188 223.179688 883.230469 224.621094 883.734375 225.984375 L 884.042969 226.824219 C 884.867188 229.058594 885.261719 231.402344 885.210938 233.785156 C 885.109375 238.6875 883.113281 243.3125 879.605469 246.796875 C 876.09375 250.285156 871.460938 252.25 866.558594 252.324219 C 860.492188 252.414062 854.808594 249.667969 851.0625 244.703125 C 849.300781 242.363281 848.117188 239.621094 847.609375 236.738281 C 847.015625 233.359375 847.324219 229.984375 848.488281 226.816406 L 848.78125 226.03125 C 849.296875 224.644531 848.269531 223.171875 846.789062 223.171875 L 817.414062 223.171875 C 816.136719 223.171875 815.09375 224.210938 815.09375 225.496094 L 815.09375 261.21875 L 813.617188 260.28125 C 811.453125 258.914062 809.027344 257.976562 806.480469 257.683594 C 801.214844 257.078125 796.160156 258.867188 792.515625 262.570312 C 789.339844 265.796875 787.621094 270.066406 787.683594 274.59375 C 787.808594 283.371094 794.757812 290.625 803.507812 291.117188 C 807.027344 291.3125 810.464844 290.429688 813.425781 288.546875 L 815.085938 287.492188 L 815.085938 323.640625 C 815.085938 324.6875 815.9375 325.535156 816.984375 325.535156 L 846.367188 325.535156 C 847.582031 325.535156 848.46875 324.394531 848.167969 323.214844 L 847.898438 322.164062 C 847.449219 320.394531 847.257812 318.570312 847.324219 316.734375 C 847.507812 311.894531 849.542969 307.34375 853.039062 303.929688 C 856.542969 300.515625 861.140625 298.59375 865.980469 298.527344 C 871.117188 298.460938 875.925781 300.398438 879.558594 303.980469 C 883.941406 308.300781 885.953125 314.363281 884.957031 320.625 C 884.875 321.109375 884.765625 321.589844 884.644531 322.0625 L 884.386719 323.085938 C 884.070312 324.332031 885.011719 325.542969 886.289062 325.542969 L 915.226562 325.542969 C 916.449219 325.542969 917.433594 324.550781 917.433594 323.335938 L 917.433594 287.503906 L 919.09375 288.558594 C 922.058594 290.433594 925.488281 291.316406 929.015625 291.125 Z M 929.03125 291.117188 " fill-opacity="1" fill-rule="nonzero"/></g><g clip-path="url(#6998aa34dc)"><path fill="#ffffff" d="M 1022.703125 223.179688 L 982.851562 223.179688 L 986.804688 215.886719 L 986.851562 215.800781 C 986.9375 215.652344 987.015625 215.507812 987.09375 215.355469 L 987.835938 213.980469 L 987.753906 213.902344 C 988.421875 212.179688 988.773438 210.335938 988.773438 208.472656 C 988.773438 200.230469 982.070312 193.527344 973.828125 193.527344 C 965.589844 193.527344 958.886719 200.230469 958.886719 208.472656 C 958.886719 210.34375 959.234375 212.191406 959.910156 213.914062 L 959.820312 213.992188 L 960.589844 215.410156 C 960.652344 215.53125 960.714844 215.648438 960.785156 215.765625 L 964.792969 223.171875 L 924.757812 223.171875 C 923.550781 223.171875 922.578125 224.148438 922.578125 225.355469 L 922.578125 250.304688 C 922.578125 251.769531 923.847656 252.902344 925.304688 252.738281 L 925.589844 252.707031 C 926.414062 252.609375 927.25 252.566406 928.085938 252.566406 C 933.964844 252.566406 939.476562 254.867188 943.601562 259.054688 C 947.730469 263.238281 949.957031 268.78125 949.878906 274.667969 C 949.71875 286.0625 940.691406 295.480469 929.324219 296.117188 C 928.074219 296.191406 926.816406 296.152344 925.589844 296.011719 C 923.984375 295.824219 922.578125 297.082031 922.578125 298.695312 L 922.578125 322.996094 C 922.578125 324.398438 923.714844 325.53125 925.109375 325.53125 L 963.820312 325.53125 L 959.808594 332.9375 L 959.945312 333.054688 C 959.875 333.226562 959.8125 333.394531 959.753906 333.570312 L 959.734375 333.609375 C 959.71875 333.652344 959.703125 333.699219 959.683594 333.75 C 959.582031 334.054688 959.492188 334.335938 959.414062 334.621094 C 959.335938 334.914062 959.261719 335.207031 959.195312 335.535156 C 959.183594 335.589844 959.171875 335.648438 959.160156 335.703125 L 959.160156 335.738281 C 959.109375 335.964844 959.070312 336.195312 959.039062 336.417969 C 959.019531 336.515625 959.007812 336.617188 958.996094 336.710938 C 958.96875 336.925781 958.945312 337.144531 958.929688 337.367188 L 958.929688 337.421875 C 958.917969 337.496094 958.914062 337.5625 958.90625 337.640625 C 958.855469 338.445312 958.867188 339.054688 958.9375 339.703125 C 959.71875 347.199219 965.78125 353.246094 973.316406 353.492188 C 981.789062 353.773438 988.765625 346.964844 988.765625 338.554688 C 988.765625 338.273438 988.753906 337.972656 988.738281 337.640625 C 988.738281 337.5625 988.726562 337.488281 988.722656 337.417969 L 988.722656 337.367188 C 988.699219 337.144531 988.675781 336.925781 988.652344 336.710938 C 988.644531 336.617188 988.632812 336.519531 988.613281 336.417969 C 988.582031 336.1875 988.542969 335.957031 988.496094 335.730469 L 988.496094 335.699219 C 988.480469 335.636719 988.46875 335.574219 988.457031 335.523438 C 988.394531 335.214844 988.320312 334.925781 988.25 334.644531 L 988.238281 334.609375 C 988.164062 334.335938 988.074219 334.054688 987.964844 333.738281 L 987.90625 333.558594 C 987.84375 333.390625 987.78125 333.214844 987.714844 333.046875 L 987.847656 332.925781 L 983.839844 325.527344 L 1022.710938 325.527344 C 1023.9375 325.527344 1024.933594 324.527344 1024.933594 323.300781 L 1024.933594 298.292969 C 1024.933594 296.882812 1023.707031 295.785156 1022.304688 295.949219 L 1021.914062 295.992188 C 1021.09375 296.089844 1020.253906 296.132812 1019.417969 296.132812 C 1013.539062 296.132812 1008.03125 293.832031 1003.902344 289.644531 C 999.773438 285.460938 997.546875 279.917969 997.625 274.035156 C 997.785156 262.640625 1006.8125 253.222656 1018.179688 252.585938 C 1019.425781 252.519531 1020.679688 252.554688 1021.910156 252.695312 L 1022.519531 252.761719 C 1023.800781 252.910156 1024.921875 251.90625 1024.921875 250.617188 L 1024.921875 225.382812 C 1024.921875 224.160156 1023.929688 223.164062 1022.703125 223.164062 Z M 1022.703125 223.179688 " fill-opacity="1" fill-rule="nonzero"/></g><g clip-path="url(#8f85ae5776)"><g clip-path="url(#72403a6f36)"><g transform="matrix(1, 0, 0, 1, 974, 1)"><g clip-path="url(#eadda1853f)"><g clip-path="url(#301a0a771a)"><g clip-path="url(#1700bfb981)"><path fill="#3b82f6" d="M 0.535156 0.203125 L 43.25 0.203125 L 43.25 42.917969 L 0.535156 42.917969 Z M 0.535156 0.203125 " fill-opacity="1" fill-rule="nonzero"/></g></g></g></g></g></g><g clip-path="url(#2422d43a5d)"><g clip-path="url(#670e24aea8)"><g transform="matrix(1, 0, 0, 1, 1040, 51)"><g clip-path="url(#254f4bcc2f)"><g clip-path="url(#36273ab3f7)"><g clip-path="url(#c7ee25fc2c)"><path fill="#3b82f6" d="M 0.414062 0.558594 L 21.769531 0.558594 L 21.769531 21.914062 L 0.414062 21.914062 Z M 0.414062 0.558594 " fill-opacity="1" fill-rule="nonzero"/></g></g></g></g></g></g><g clip-path="url(#4f7161f4f4)"><g transform="matrix(1, 0, 0, 1, -0.000000000000028422, 49)"><g clip-path="url(#a4f8ecc708)"><g fill="#3b82f6" fill-opacity="1"><g transform="translate(1.561457, 217.478506)"><g><path d="M 70.265625 -105.976562 L 70.265625 -157.8125 L 9.503906 -157.8125 L 4.609375 -127 L 29.949219 -127 L 29.949219 -105.113281 C 29.949219 -93.882812 29.660156 -84.089844 25.054688 -67.386719 L 57.882812 -58.171875 C 64.21875 -69.402344 70.265625 -90.425781 70.265625 -105.976562 Z M 70.265625 -105.976562 "/></g></g></g><g fill="#3b82f6" fill-opacity="1"><g transform="translate(88.819122, 217.478506)"><g><path d="M 114.902344 0 L 154.644531 0 L 154.644531 -104.824219 C 154.644531 -139.382812 136.789062 -157.8125 104.25 -157.8125 L 58.746094 -157.8125 C 40.605469 -157.8125 32.828125 -159.253906 19.007812 -164.722656 L 9.792969 -134.773438 C 17.855469 -130.167969 31.679688 -127.863281 40.027344 -127 C 33.40625 -118.648438 32.253906 -106.265625 32.253906 -96.761719 L 32.253906 -44.925781 C 32.253906 -33.40625 29.375 -29.375 22.75 -29.375 C 19.292969 -29.375 14.398438 -29.949219 6.625 -31.679688 L -0.863281 -3.167969 C 6.335938 -0.863281 23.328125 2.015625 30.238281 2.015625 C 59.898438 2.015625 71.417969 -18.429688 71.417969 -42.046875 L 71.417969 -105.402344 C 71.417969 -114.902344 71.417969 -120.375 72.570312 -127 L 98.488281 -127 C 110.871094 -127 114.902344 -118.9375 114.902344 -107.703125 Z M 114.902344 0 "/></g></g></g><g fill="#3b82f6" fill-opacity="1"><g transform="translate(261.318627, 217.478506)"><g><path d="M 114.617188 0 L 161.554688 0 L 120.664062 -56.730469 C 127.863281 -80.347656 144.566406 -124.695312 157.8125 -154.644531 L 116.054688 -161.554688 C 109.144531 -144.566406 101.082031 -116.34375 97.050781 -93.59375 L 96.472656 -90.425781 L 53.5625 -157.8125 L 5.472656 -157.8125 L 35.421875 -116.632812 L 3.457031 0 L 45.210938 0 L 62.203125 -80.632812 Z M 114.617188 0 "/></g></g></g><g fill="#3b82f6" fill-opacity="1"><g transform="translate(427.194574, 217.478506)"><g><path d="M 150.613281 -157.8125 L 103.382812 -157.8125 L 82.9375 -112.886719 C 80.347656 -107.128906 77.753906 -98.488281 77.179688 -94.167969 C 76.027344 -98.777344 73.148438 -106.265625 70.554688 -111.160156 L 45.789062 -159.828125 L 1.726562 -154.933594 L 60.476562 -56.730469 C 65.660156 -48.09375 73.433594 -38.589844 81.785156 -30.8125 L 11.808594 -30.8125 L 11.808594 0 L 129.304688 0 L 134.199219 -29.949219 C 118.070312 -41.179688 106.265625 -51.261719 98.199219 -64.507812 Z M 150.613281 -157.8125 "/></g></g></g><g fill="#3b82f6" fill-opacity="1"><g transform="translate(580.687429, 217.478506)"><g><path d="M 74.875 0 L 144.277344 0 L 144.277344 -97.625 C 144.277344 -131.605469 124.121094 -157.8125 84.953125 -157.8125 L 60.1875 -157.8125 C 40.605469 -157.8125 34.558594 -159.253906 20.734375 -164.722656 L 11.519531 -133.046875 C 19.292969 -128.4375 30.238281 -126.136719 39.164062 -125.847656 C 30.8125 -116.917969 25.054688 -102.234375 24.191406 -93.882812 L 13.246094 0 L 54.140625 0 L 64.21875 -106.265625 C 64.796875 -112.886719 67.675781 -121.238281 71.996094 -127 L 82.648438 -127 C 99.066406 -127 105.113281 -113.75 105.113281 -100.21875 L 105.113281 -30.8125 L 78.042969 -30.8125 Z M 74.875 0 "/></g></g></g></g></g></g></g></g></svg>