<svg xmlns="http://www.w3.org/2000/svg" height="512" preserveAspectRatio="none" style="display: block;" version="1.1" viewBox="0 0 2048 2048" width="512">
<path d="M 322.986 328.984 L 1223.65 328.986 C 1260.6 328.989 1300.31 329.821 1336.96 328.984 L 1337.3 377.243 C 1419.07 320.816 1526.63 318.631 1610.62 371.692 C 1694.62 424.752 1738.84 522.816 1723.01 620.897 C 1707.17 718.977 1634.34 798.143 1537.91 822.078 C 1539.01 838.605 1538.42 860.288 1538.43 877.222 L 1538.58 1215.38 C 1538.6 1259 1537.98 1304.44 1538.91 1347.95 L 1443.81 1347.95 C 1461.29 1369.54 1501.44 1405.96 1521.4 1425.98 L 1609.69 1513.55 C 1628.63 1532.36 1646.04 1550.59 1665.88 1568.78 C 1704.07 1534.92 1721.2 1595.08 1720.31 1597.19 C 1707.38 1617.83 1617.05 1704.45 1598.77 1718.29 C 1589.87 1725.03 1561.26 1691.15 1556.39 1684.17 C 1559.93 1677.2 1561.22 1675 1565.9 1668.78 C 1498.45 1598.2 1420.08 1517.5 1348 1451.12 C 1347.06 1456.62 1348.88 1467.24 1348.71 1474.69 C 1347.41 1531.27 1347.97 1588.4 1348 1645.02 L 322.986 1645.02 C 322.303 1596.57 322.973 1546.61 322.973 1498 L 322.986 328.984 z" fill="rgb(222,222,222)" transform="translate(0,0)"></path>
<path d="M 1337.3 377.243 C 1419.07 320.816 1526.63 318.631 1610.62 371.692 C 1694.62 424.752 1738.84 522.816 1723.01 620.897 C 1707.17 718.977 1634.34 798.143 1537.91 822.078 C 1514.77 827.823 1490.92 830.199 1467.09 829.135 C 1424.41 827.228 1382.94 814.324 1346.7 791.675 C 1328.31 780.178 1311.51 766.317 1296.72 750.448 C 1266.57 718.094 1245.62 678.268 1236.04 635.094 C 1232.25 618.003 1230.28 600.558 1230.16 583.051 C 1229.74 521.145 1252.49 461.321 1293.93 415.334 C 1306.86 400.992 1321.41 388.209 1337.3 377.243 z" fill="rgb(253,201,1)" transform="translate(0,0)"></path>
<path d="M 1109.38 924.957 C 1182.44 924.366 1232.41 931.301 1292.94 980.095 C 1313.06 999.717 1324.64 1010.99 1341.51 1034.41 C 1350.33 1051.3 1356.52 1064.91 1363.54 1082.64 C 1370.85 1103.92 1371.18 1116.31 1376.49 1136.23 C 1373.94 1190.79 1378.46 1220.71 1348 1272.75 C 1356.84 1282.79 1361.85 1293.77 1369.96 1304.05 C 1374.19 1310.95 1386.72 1328.17 1389.21 1332.88 C 1360.91 1354.48 1347.93 1360.68 1330.62 1394.91 C 1311.78 1377.54 1300.42 1367.72 1279.83 1351.73 C 1245.26 1373.85 1224.11 1376.24 1196.16 1391.62 C 1158.47 1396.36 1137.25 1398.01 1098.49 1391.62 C 1052.24 1380.38 1028.41 1370.63 990.782 1340.71 C 925.721 1280.76 904.588 1223.43 906.929 1136.23 C 906.418 1137.03 917.416 1087.34 918.654 1082.64 L 918.983 1081.7 C 943.879 1011.63 990.29 970.06 1055.02 939.445 C 1070.3 934.988 1097.13 929.906 1109.38 924.957 z" fill="rgb(227,57,19)" transform="translate(0,0)"></path>
<path d="M 1348 1272.75 C 1356.84 1282.79 1361.85 1293.77 1369.96 1304.05 C 1374.19 1310.95 1386.72 1328.17 1389.21 1332.88 C 1360.91 1354.48 1347.93 1360.68 1330.62 1394.91 C 1311.78 1377.54 1300.42 1367.72 1279.83 1351.73 C 1308.72 1323.89 1326.63 1310.85 1348 1272.75 z" fill="rgb(253,201,1)" transform="translate(0,0)"></path>
<path d="M 1137.06 986.215 C 1232.97 983.566 1312.85 1059.19 1315.45 1155.1 C 1318.06 1251 1242.4 1330.85 1146.49 1333.41 C 1050.65 1335.97 970.865 1260.37 968.262 1164.52 C 965.66 1068.68 1041.22 988.863 1137.06 986.215 z" fill="rgb(254,254,254)" transform="translate(0,0)"></path>
<path d="M 1213.76 1070.59 C 1220.52 1074.36 1254 1111.05 1262.26 1119.07 C 1213.72 1169.58 1159.06 1217.83 1109.38 1267.78 C 1097.75 1256.98 1084.16 1241.65 1073.13 1229.76 C 1057.96 1214.09 1039.98 1197.75 1024.1 1182.45 C 1039.61 1166.02 1054.96 1154.56 1070.08 1136.23 C 1081.01 1150.46 1096.46 1165.19 1109.38 1178.1 C 1141.59 1140.18 1180.82 1107.97 1213.76 1070.59 z" fill="rgb(227,57,19)" transform="translate(0,0)"></path>
<path d="M 1389.21 1332.88 C 1418.09 1321.11 1422.77 1330.75 1443.81 1347.95 C 1461.29 1369.54 1501.44 1405.96 1521.4 1425.98 L 1609.69 1513.55 C 1628.63 1532.36 1646.04 1550.59 1665.88 1568.78 C 1704.07 1534.92 1721.2 1595.08 1720.31 1597.19 C 1707.38 1617.83 1617.05 1704.45 1598.77 1718.29 C 1589.87 1725.03 1561.26 1691.15 1556.39 1684.17 C 1559.93 1677.2 1561.22 1675 1565.9 1668.78 C 1498.45 1598.2 1420.08 1517.5 1348 1451.12 C 1337.86 1438.54 1328.21 1435.59 1323.09 1418.43 C 1325.27 1409.75 1327.58 1403.35 1330.62 1394.91 C 1347.93 1360.68 1360.91 1354.48 1389.21 1332.88 z" fill="rgb(135,40,1)" transform="translate(0,0)"></path>
<path d="M 1665.88 1568.78 C 1704.07 1534.92 1721.2 1595.08 1720.31 1597.19 C 1707.38 1617.83 1617.05 1704.45 1598.77 1718.29 C 1589.87 1725.03 1561.26 1691.15 1556.39 1684.17 C 1559.93 1677.2 1561.22 1675 1565.9 1668.78 C 1596.8 1635.45 1633.26 1600.42 1665.88 1568.78 z" fill="rgb(253,201,1)" transform="translate(0,0)"></path>
<path d="M 1098.49 1391.62 C 1137.25 1398.01 1158.47 1396.36 1196.16 1391.62 L 1196.58 1391.99 C 1195.73 1391.95 1191.82 1391.83 1191.3 1391.62 C 1206.3 1398.84 1272.03 1394.89 1292.94 1394.91 L 1292.94 1592.55 L 1098.49 1592.55 L 1098.51 1456.31 C 1098.53 1436.22 1099.44 1411.05 1098.49 1391.62 z" fill="rgb(254,254,254)" transform="translate(0,0)"></path>
<path d="M 1106.43 635.796 C 1148.97 635.702 1193.87 634.577 1236.04 635.094 C 1245.62 678.268 1266.57 718.094 1296.72 750.448 L 1292.94 833.731 C 1274.14 832.948 1250.23 833.689 1230.91 833.696 L 1106.43 833.731 L 1106.43 635.796 z" fill="rgb(254,254,254)" transform="translate(0,0)"></path>
<path d="M 1106.43 378.89 L 1292.94 378.89 C 1293.55 390.808 1293.65 403.357 1293.93 415.334 C 1252.49 461.321 1229.74 521.145 1230.16 583.051 C 1189.63 583.1 1146.78 582.442 1106.43 583.544 L 1106.43 378.89 z" fill="rgb(227,57,19)" transform="translate(0,0)"></path>
<path d="M 1343.88 885.244 L 1495.29 885.244 L 1495.29 1082.64 L 1407.77 1082.61 C 1393.99 1082.6 1376.9 1082.11 1363.54 1082.64 C 1356.52 1064.91 1350.33 1051.3 1341.51 1034.41 C 1346.48 1022.2 1342.5 908.127 1343.88 885.244 z" fill="rgb(254,254,254)" transform="translate(0,0)"></path>
<path d="M 859.037 885.244 L 1055.02 885.244 C 1055.12 903.328 1055.25 921.359 1055.02 939.445 C 990.29 970.06 943.879 1011.63 918.983 1081.7 L 918.654 1082.64 L 859.037 1082.64 L 859.037 885.244 z" fill="rgb(254,254,254)" transform="translate(0,0)"></path>
<path d="M 1376.49 1136.23 L 1495.29 1136.23 L 1495.29 1304.05 L 1413.37 1304.08 C 1399.47 1304.1 1383.56 1304.7 1369.96 1304.05 C 1361.85 1293.77 1356.84 1282.79 1348 1272.75 C 1378.46 1220.71 1373.94 1190.79 1376.49 1136.23 z" fill="rgb(254,254,254)" transform="translate(0,0)"></path>
<path d="M 859.037 1136.23 C 865.043 1136.45 905.678 1135.68 906.929 1136.23 C 904.588 1223.43 925.721 1280.76 990.782 1340.71 C 982.162 1345.68 876.889 1343.15 859.037 1343.13 L 859.037 1136.23 z" fill="rgb(254,254,254)" transform="translate(0,0)"></path>
<path d="M 1106.43 885.244 L 1292.94 885.244 C 1292.98 916.725 1293.3 948.65 1292.94 980.095 C 1232.41 931.301 1182.44 924.366 1109.38 924.957 L 1106.84 924.662 C 1105.69 920.261 1106.5 891.881 1106.43 885.244 z" fill="rgb(254,254,254)" transform="translate(0,0)"></path>
<path d="M 1346.7 791.675 C 1382.94 814.324 1424.41 827.228 1467.09 829.135 C 1454.83 837.434 1364.52 833.819 1343.88 833.731 C 1345.97 821.434 1343.59 799.733 1346.7 791.675 z" fill="rgb(254,254,254)" transform="translate(0,0)"></path>
<path d="M 1011.12 378.89 L 1055.02 378.89 L 1055.02 583.544 L 901.75 583.544 L 857.537 583.544 L 857.537 378.89 L 1011.12 378.89 z" fill="rgb(254,254,254)" transform="translate(0,0)"></path>
<path d="M 619.516 1136.23 L 808.505 1136.23 L 808.503 1319.99 C 808.552 1325.92 810.092 1338.02 807.274 1342.98 L 804.25 1343.13 L 614.864 1343.13 C 613.371 1321.56 612.339 1142.88 616.008 1136.65 L 619.516 1136.23 z" fill="rgb(254,254,254)" transform="translate(0,0)"></path>
<path d="M 614.864 378.89 L 808.505 378.89 L 808.505 583.544 C 744.998 582.522 678.612 583.537 614.864 583.544 L 614.864 378.89 z" fill="rgb(254,254,254)" transform="translate(0,0)"></path>
<path d="M 376.375 1136.23 L 564.048 1136.23 L 564.014 1286.94 C 564.014 1295.19 564.618 1337.7 563.4 1342.37 L 561.25 1343.13 L 373.005 1343.13 C 373.002 1321.46 371.935 1141.44 373.797 1136.94 L 376.375 1136.23 z" fill="rgb(254,254,254)" transform="translate(0,0)"></path>
<path d="M 373.005 378.89 L 564.048 378.89 L 564.139 559.682 C 564.167 566.013 564.881 577.685 564.048 583.544 L 373.005 583.544 C 372.217 519.735 369.116 441.661 373.005 378.89 z" fill="rgb(254,254,254)" transform="translate(0,0)"></path>
<path d="M 857.537 635.796 L 1055.02 635.796 L 1055.02 833.731 L 857.537 833.731 L 857.537 635.796 z" fill="rgb(227,57,19)" transform="translate(0,0)"></path>
<path d="M 614.864 1394.91 L 808.505 1394.91 L 808.522 1526.04 C 808.534 1547.52 809.181 1571.29 808.505 1592.55 L 614.864 1592.55 C 614.045 1571.07 614.826 1546.94 614.84 1525.09 L 614.864 1394.91 z" fill="rgb(254,254,254)" transform="translate(0,0)"></path>
<path d="M 614.864 885.244 L 808.505 885.244 L 808.505 1082.64 L 614.864 1082.64 L 614.864 885.244 z" fill="rgb(227,57,19)" transform="translate(0,0)"></path>
<path d="M 614.864 635.796 L 808.505 635.796 L 808.548 767.067 C 808.536 788.446 807.763 812.679 808.505 833.731 L 614.864 833.731 L 614.864 635.796 z" fill="rgb(254,254,254)" transform="translate(0,0)"></path>
<path d="M 385.629 635.796 L 564.048 635.796 L 564.048 833.731 L 555.196 833.731 C 494.787 833.741 433.334 833.101 373.005 833.731 C 371.892 818.419 372.956 786 372.963 769.306 L 373.005 635.796 L 385.629 635.796 z" fill="rgb(254,254,254)" transform="translate(0,0)"></path>
<path d="M 373.005 1394.91 L 564.048 1394.91 L 564.048 1592.55 C 552.695 1593.66 518.722 1592.52 505.025 1592.5 L 373.005 1592.55 L 373.005 1394.91 z" fill="rgb(227,57,19)" transform="translate(0,0)"></path>
<path d="M 385.629 885.244 C 393.373 884.26 427.61 885.274 437.82 885.284 L 564.048 885.244 L 564.059 1015.37 C 564.073 1032.46 565.155 1067.05 563.582 1082.06 C 560.769 1083.27 558.522 1082.74 555.196 1082.64 L 373.005 1082.64 L 373.005 885.244 L 385.629 885.244 z" fill="rgb(254,254,254)" transform="translate(0,0)"></path>
<path d="M 859.037 1394.91 C 898.408 1395.86 1005.98 1400.07 1042.86 1394.91 C 1042.1 1412.34 1042.79 1433.97 1042.82 1451.83 L 1042.89 1554.4 C 1042.9 1560.51 1043.96 1589.1 1042.86 1592.55 C 981.797 1591.89 920.18 1592.89 859.037 1592.55 L 859.037 1394.91 z" fill="rgb(254,254,254)" transform="translate(0,0)"></path>
<metadata><recraft-signature>{"signed_by": "recraft", "signature_b64": "+OoFZmN2PW00qHnsH7uVaJ/6+eP4PPrzdSOj4IfbG8rQhh1TinzzYKwmoWyWfvhnSH7/kPkuKvzUuo0vHtQqDg==", "signing_algo": "Ed25519", "generation_timestamp": 1773675241, "identifier": "6e2a02c3-f99a-4f46-a43a-52996f4cacac"}</recraft-signature></metadata></svg>